<svg xmlns="http://www.w3.org/2000/svg" width="128" height="128" viewBox="0 0 128 128">
  <rect fill="#6B6B6B" x="0" y="0" width="128" height="128" rx="16" ry="16" />
  <path fill="#eee" d="m 64,11.5 c -28.947502,0 -52.5,23.550006 -52.5,52.5 0,28.949994 23.552498,52.5 52.5,52.5 28.947502,0 52.5,-23.550006 52.5,-52.5 0,-1.66 -0.12452,-3.274581 -0.22952,-4.497077 -0.0754,-0.8725 -0.59686,-1.638852 -1.38174,-2.026352 -0.78503,-0.387498 -1.71872,-0.343177 -2.45126,0.131758 -1.42242,0.910065 -3.04254,1.391669 -4.68742,1.391669 -3.59248,0 -6.77779,-2.167446 -8.11528,-5.522451 -0.2625,-0.662502 -0.79722,-1.183284 -1.46974,-1.425786 -0.669988,-0.2425 -1.413512,-0.191123 -2.041019,0.151373 -2.174995,1.172498 -4.636516,1.796863 -7.124018,1.796863 -8.272505,0 -15,-6.727497 -15,-15.000005 0,-2.484989 0.624238,-4.946507 1.801749,-7.12401 0.340003,-0.627505 0.391365,-1.371021 0.1515,-2.04102 -0.245002,-0.672508 -0.763278,-1.204719 -1.425776,-1.469729 -3.360124,-1.337503 -5.527479,-4.522729 -5.527479,-8.115239 0,-1.644988 0.481608,-3.264991 1.391601,-4.687494 0.470007,-0.737494 0.519357,-1.666176 0.131752,-2.451166 C 70.135859,12.326328 69.364595,11.799605 68.492097,11.724611 67.177197,11.612113 65.615003,11.5 64,11.5 Z m 32.499993,0 a 5,5 0 0 0 -4.999996,5.000002 5,5 0 0 0 4.999996,5.000001 5,5 0 0 0 4.999967,-5.000001 A 5,5 0 0 0 96.499993,11.5 Z M 92.749998,31.500006 A 3.7499996,3.7499996 0 0 0 89.000003,35.25 3.7499996,3.7499996 0 0 0 92.749998,38.999992 3.7499996,3.7499996 0 0 0 96.499993,35.25 3.7499996,3.7499996 0 0 0 92.749998,31.500006 Z m -37.499989,7.499986 c 2.069994,0 3.749994,1.68 3.749994,3.75001 0,2.069992 -1.68,3.749992 -3.749994,3.749992 -2.070011,0 -3.750011,-1.68 -3.750011,-3.749992 0,-2.07001 1.68,-3.75001 3.750011,-3.75001 z m 58.750011,0 a 2.5000008,2.5000008 0 0 0 -2.49999,2.500002 2.5000008,2.5000008 0 0 0 2.49999,2.5 2.5000008,2.5000008 0 0 0 2.49998,-2.5 2.5000008,2.5000008 0 0 0 -2.49998,-2.500002 z M 38.999997,51.499996 c 4.142503,0 7.499994,3.357506 7.499994,7.500002 0,4.142496 -3.357491,7.500002 -7.499994,7.500002 -4.142499,0 -7.49999,-3.357506 -7.49999,-7.500002 0,-4.142496 3.357491,-7.500002 7.49999,-7.500002 z M 62.750003,61.5 c 2.069995,0 3.749995,1.68 3.749995,3.749992 0,2.07001 -1.68,3.75001 -3.749995,3.75001 -2.07,0 -3.75,-1.68 -3.75,-3.75001 0,-2.069992 1.68,-3.749992 3.75,-3.749992 z m -18.75001,17.500004 c 2.762498,0 5.000007,2.237502 5.000007,5.000002 0,2.7625 -2.237509,5.000002 -5.000007,5.000002 -2.762498,0 -4.999996,-2.237502 -4.999996,-5.000002 0,-2.7625 2.237498,-5.000002 4.999996,-5.000002 z m 33.750005,2.500002 c 3.452493,0 6.250009,2.797494 6.250009,6.249994 0,3.452498 -2.797516,6.249994 -6.250009,6.249994 -3.452503,0 -6.249993,-2.797496 -6.249993,-6.249994 0,-3.4525 2.79749,-6.249994 6.249993,-6.249994 z" />
</svg>
